<svg width="73" height="58" viewBox="0 0 73 58" fill="none" xmlns="http://www.w3.org/2000/svg">
<path d="M63.9415 25.6295C60.8062 26.683 57.7473 27.7205 56.7235 28.1737C56.7075 28.0972 56.7075 28.0972 56.7075 28.0972L27.5451 38.4143C27.5451 38.4143 11.9255 43.1903 11.5668 49.8955L51.504 49.8725C55.2988 45.0867 57.4408 38.8883 57.1711 32.2343C57.1486 31.3603 57.0495 30.5022 56.9504 29.6442C59.2916 28.996 67.811 26.1804 68.2599 22.9713C68.2599 22.9713 67.8105 24.2633 63.9415 25.6295ZM46.4405 32.875L54.5899 29.817C54.5899 29.817 54.9262 35.2588 51.657 36.8195L46.4405 32.875Z" fill="white"/>
<path d="M29.9644 6.14864C21.5144 6.23374 13.9999 10.038 9.03482 16.1064C5.72474 20.152 3.91099 25.2435 4.12286 30.4717C4.40849 37.2023 8.20009 45.0388 26.7251 37.3401L29.4777 36.3665L24.2805 32.8972C24.2805 32.8972 26.446 31.407 29.7256 32.9596C33.0212 34.5888 36.3097 33.5034 36.3097 33.5034L46.0024 27.8868L41.1828 29.2915L30.2205 22.3117C32.8454 20.7256 36.5998 20.3419 40.4313 21.8593C44.2627 23.3767 50.643 25.2412 54.7896 24.0566C55.0033 23.9322 55.2329 23.8843 55.4626 23.8364C57.1148 23.332 61.4624 22.3452 61.4624 22.3452C58.9202 22.7956 55.9473 23.0962 55.1657 23.1793C51.1726 13.2279 41.314 6.17763 30.0409 6.13267L29.9644 6.14864Z" fill="white"/>
</svg>
