<svg width="14" height="13" viewBox="0 0 14 13" fill="none" xmlns="http://www.w3.org/2000/svg">
<path d="M11.387 2.23719C11.3352 2.18561 11.2697 2.1499 11.1983 2.13426C11.1269 2.11862 11.0525 2.12369 10.9839 2.14888L2.53697 5.22048C2.46412 5.24811 2.4014 5.29725 2.35715 5.36137C2.31289 5.4255 2.28918 5.50156 2.28918 5.57948C2.28918 5.65739 2.31289 5.73346 2.35715 5.79758C2.4014 5.8617 2.46412 5.91084 2.53697 5.93847L6.22289 7.41284L7.69726 11.0988C7.72497 11.1684 7.77245 11.2284 7.83385 11.2714C7.89526 11.3144 7.9679 11.3385 8.04282 11.3407C8.12041 11.3391 8.1957 11.314 8.25876 11.2688C8.32182 11.2235 8.36968 11.1602 8.39605 11.0872L11.4677 2.64033C11.4938 2.5724 11.5001 2.49844 11.4859 2.42706C11.4716 2.35568 11.4373 2.28983 11.387 2.23719ZM8.04282 9.88164L6.9716 7.19399L8.81072 5.35486L8.26935 4.81349L6.41487 6.66798L3.74257 5.5814L10.4732 3.15099L8.04282 9.88164Z" fill="white"/>
</svg>
