<svg width="37" height="30" viewBox="0 0 37 30" fill="none" xmlns="http://www.w3.org/2000/svg">
<path d="M32.1132 12.8713C30.5386 13.4004 29.0024 13.9214 28.4882 14.1491C28.4802 14.1106 28.4802 14.1106 28.4802 14.1106L13.8341 19.2921C13.8341 19.2921 5.98962 21.6907 5.80946 25.0582L25.8668 25.0467C27.7726 22.6431 28.8484 19.5301 28.713 16.1884C28.7017 15.7494 28.6519 15.3185 28.6021 14.8876C29.7779 14.5621 34.0566 13.148 34.282 11.5363C34.282 11.5363 34.0563 12.1852 32.1132 12.8713ZM23.3238 16.5102L27.4166 14.9744C27.4166 14.9744 27.5855 17.7074 25.9437 18.4912L23.3238 16.5102Z" fill="#3A6AD5"/>
<path d="M15.0487 3.08821C10.8049 3.13095 7.031 5.04153 4.53741 8.08923C2.87502 10.121 1.96411 12.6781 2.07052 15.3038C2.21396 18.684 4.11819 22.6197 13.4218 18.7533L14.8043 18.2643L12.1941 16.5219C12.1941 16.5219 13.2817 15.7735 14.9288 16.5533C16.5839 17.3715 18.2355 16.8264 18.2355 16.8264L23.1033 14.0056L20.6828 14.7111L15.1773 11.2057C16.4956 10.4091 18.3812 10.2164 20.3054 10.9785C22.2297 11.7405 25.434 12.6769 27.5165 12.082C27.6238 12.0195 27.7391 11.9954 27.8545 11.9714C28.6843 11.718 30.8677 11.2225 30.8677 11.2225C29.5909 11.4487 28.0979 11.5996 27.7054 11.6414C25.7 6.64359 20.7488 3.10277 15.0872 3.08019L15.0487 3.08821Z" fill="#3A6AD5"/>
</svg>
