<svg width="8" height="9" viewBox="0 0 8 9" fill="none" xmlns="http://www.w3.org/2000/svg">
<path fill-rule="evenodd" clip-rule="evenodd" d="M7.35097 3.67384L4.85097 1.16885C4.76097 1.07366 4.63597 1.01855 4.49597 1.01855C4.22097 1.01855 3.99597 1.244 3.99597 1.51955C3.99597 1.65983 4.05097 1.78508 4.14097 1.87526L5.78597 3.52354H0.995972C0.720972 3.52354 0.495972 3.74899 0.495972 4.02453C0.495972 4.30008 0.720972 4.52553 0.995972 4.52553H5.79097L4.14597 6.17381C4.05597 6.26399 4.00097 6.38924 4.00097 6.52952C4.00097 6.80507 4.22597 7.03051 4.50097 7.03051C4.64097 7.03051 4.76597 6.9754 4.85597 6.88523L7.35597 4.38024C7.44597 4.29006 7.50097 4.16481 7.50097 4.02453C7.50097 3.88426 7.44097 3.76402 7.35097 3.67384Z" fill="#3A6AD5"/>
</svg>
