<svg width="20" height="21" viewBox="0 0 20 21" fill="none" xmlns="http://www.w3.org/2000/svg">
<path fill-rule="evenodd" clip-rule="evenodd" d="M1.62245 10.9052L7.87245 17.1677C8.09745 17.4057 8.40995 17.5435 8.75995 17.5435C9.44745 17.5435 10.0099 16.9798 10.0099 16.291C10.0099 15.9403 9.87245 15.6271 9.64745 15.4017L5.53495 11.281L17.5099 11.281C18.1974 11.281 18.7599 10.7174 18.7599 10.0285C18.7599 9.33964 18.1974 8.77601 17.5099 8.77601L5.52245 8.77601L9.63495 4.65532C9.85995 4.42987 9.99745 4.11674 9.99745 3.76605C9.99745 3.07718 9.43495 2.51355 8.74745 2.51355C8.39745 2.51355 8.08495 2.65133 7.85995 2.87678L1.60995 9.13924C1.38495 9.36468 1.24745 9.67781 1.24745 10.0285C1.24745 10.3792 1.39745 10.6798 1.62245 10.9052Z" fill="#3A6AD5"/>
</svg>
