<svg width="16" height="16" viewBox="0 0 16 16" fill="none" xmlns="http://www.w3.org/2000/svg">
<g clip-path="url(#clip0_1613_1268)">
<path d="M8 15C6.14348 15 4.36301 14.2625 3.05025 12.9497C1.7375 11.637 1 9.85652 1 8C1 6.14348 1.7375 4.36301 3.05025 3.05025C4.36301 1.7375 6.14348 1 8 1C9.85652 1 11.637 1.7375 12.9497 3.05025C14.2625 4.36301 15 6.14348 15 8C15 9.85652 14.2625 11.637 12.9497 12.9497C11.637 14.2625 9.85652 15 8 15ZM8 16C10.1217 16 12.1566 15.1571 13.6569 13.6569C15.1571 12.1566 16 10.1217 16 8C16 5.87827 15.1571 3.84344 13.6569 2.34315C12.1566 0.842855 10.1217 0 8 0C5.87827 0 3.84344 0.842855 2.34315 2.34315C0.842855 3.84344 0 5.87827 0 8C0 10.1217 0.842855 12.1566 2.34315 13.6569C3.84344 15.1571 5.87827 16 8 16Z" fill="#3A6AD5"/>
<path d="M10.9702 4.96955C10.9631 4.97645 10.9564 4.9838 10.9502 4.99155L7.47722 9.41655L5.38422 7.32255C5.24204 7.19007 5.054 7.11794 4.85969 7.12137C4.66539 7.1248 4.48001 7.20351 4.34259 7.34093C4.20518 7.47834 4.12647 7.66372 4.12304 7.85803C4.11961 8.05233 4.19174 8.24037 4.32422 8.38255L6.97022 11.0295C7.0415 11.1007 7.12638 11.1568 7.2198 11.1944C7.31322 11.232 7.41326 11.2505 7.51396 11.2486C7.61466 11.2467 7.71395 11.2246 7.80591 11.1835C7.89787 11.1425 7.98062 11.0833 8.04922 11.0095L12.0412 6.01955C12.1771 5.87688 12.2515 5.68644 12.2481 5.48942C12.2448 5.29239 12.164 5.1046 12.0233 4.96664C11.8826 4.82869 11.6932 4.75166 11.4961 4.7522C11.2991 4.75274 11.1102 4.83082 10.9702 4.96955Z" fill="#3A6AD5"/>
</g>
<defs>
<clipPath id="clip0_1613_1268">
<rect width="16" height="16" fill="white"/>
</clipPath>
</defs>
</svg>
