<svg width="24" height="24" viewBox="0 0 24 24" fill="none" xmlns="http://www.w3.org/2000/svg">
<path d="M11.6818 20.4229L10.8818 19.7229C9.1651 18.1396 7.74843 16.7813 6.63176 15.6479C5.5151 14.5146 4.62343 13.5063 3.95676 12.6229C3.2901 11.7396 2.8276 10.9438 2.56926 10.2354C2.31093 9.52712 2.18176 8.81462 2.18176 8.09795C2.18176 6.73128 2.64426 5.58545 3.56926 4.66045C4.49426 3.73545 5.6401 3.27295 7.00676 3.27295C7.9401 3.27295 8.8026 3.50628 9.59426 3.97295C10.3859 4.43962 11.0818 5.12295 11.6818 6.02295C12.3484 5.08962 13.0693 4.39795 13.8443 3.94795C14.6193 3.49795 15.4568 3.27295 16.3568 3.27295C17.7234 3.27295 18.8693 3.73545 19.7943 4.66045C20.7193 5.58545 21.1818 6.73128 21.1818 8.09795C21.1818 8.81462 21.0526 9.52712 20.7943 10.2354C20.5359 10.9438 20.0734 11.7396 19.4068 12.6229C18.7401 13.5063 17.8484 14.5146 16.7318 15.6479C15.6151 16.7813 14.1984 18.1396 12.4818 19.7229L11.6818 20.4229ZM11.6818 18.9229C13.3484 17.4063 14.7193 16.1063 15.7943 15.0229C16.8693 13.9396 17.7193 12.9896 18.3443 12.1729C18.9693 11.3563 19.4109 10.6313 19.6693 9.99795C19.9276 9.36462 20.0568 8.73128 20.0568 8.09795C20.0568 7.03128 19.7068 6.14795 19.0068 5.44795C18.3068 4.74795 17.4318 4.39795 16.3818 4.39795C15.5151 4.39795 14.7276 4.65212 14.0193 5.16045C13.3109 5.66878 12.6901 6.42295 12.1568 7.42295H11.2068C10.6734 6.43962 10.0484 5.68962 9.33176 5.17295C8.6151 4.65628 7.83176 4.39795 6.98176 4.39795C5.93176 4.39795 5.05676 4.74795 4.35676 5.44795C3.65676 6.14795 3.30676 7.03962 3.30676 8.12295C3.30676 8.73962 3.43593 9.36462 3.69426 9.99795C3.9526 10.6313 4.39426 11.3604 5.01926 12.1854C5.64426 13.0104 6.49843 13.9604 7.58176 15.0354C8.6651 16.1105 10.0318 17.4063 11.6818 18.9229Z" fill="white"/>
</svg>
