<svg width="38" height="31" viewBox="0 0 38 31" fill="none" xmlns="http://www.w3.org/2000/svg">
<path d="M32.9881 13.843C31.4135 14.3721 29.8773 14.8931 29.3631 15.1207C29.355 15.0823 29.355 15.0823 29.355 15.0823L14.709 20.2638C14.709 20.2638 6.86452 22.6624 6.68435 26.0299L26.7417 26.0183C28.6475 23.6148 29.7233 20.5018 29.5879 17.1601C29.5765 16.7211 29.5268 16.2902 29.477 15.8592C30.6528 15.5337 34.9315 14.1197 35.1569 12.508C35.1569 12.508 34.9312 13.1568 32.9881 13.843ZM24.1987 17.4818L28.2915 15.9461C28.2915 15.9461 28.4604 18.6791 26.8186 19.4629L24.1987 17.4818Z" fill="white"/>
<path d="M15.9236 4.05989C11.6798 4.10263 7.9059 6.01321 5.4123 9.06091C3.74991 11.0927 2.839 13.6498 2.94541 16.2755C3.08886 19.6557 4.99309 23.5914 14.2967 19.7249L15.6792 19.236L13.069 17.4936C13.069 17.4936 14.1566 16.7452 15.8037 17.525C17.4588 18.3432 19.1104 17.7981 19.1104 17.7981L23.9782 14.9773L21.5577 15.6828L16.0522 12.1773C17.3705 11.3808 19.2561 11.1881 21.1803 11.9501C23.1045 12.7122 26.3089 13.6486 28.3914 13.0537C28.4987 12.9912 28.614 12.9671 28.7294 12.9431C29.5591 12.6897 31.7426 12.1941 31.7426 12.1941C30.4658 12.4204 28.9728 12.5713 28.5803 12.6131C26.5749 7.61527 21.6237 4.07445 15.962 4.05187L15.9236 4.05989Z" fill="white"/>
</svg>
