<svg width="16" height="16" viewBox="0 0 16 16" fill="none" xmlns="http://www.w3.org/2000/svg">
<path d="M7.33624 1.39102C7.60265 0.832718 8.39735 0.832718 8.66376 1.39102L10.4202 5.07198C10.5274 5.29667 10.7411 5.45187 10.9879 5.4844L15.0315 6.01742C15.6448 6.09827 15.8903 6.85408 15.4417 7.27997L12.4837 10.0879C12.3031 10.2594 12.2215 10.5105 12.2668 10.7553L13.0094 14.7656C13.1221 15.3739 12.4791 15.841 11.9355 15.5459L8.35082 13.6004C8.13202 13.4817 7.86798 13.4817 7.64918 13.6004L4.06455 15.5459C3.52086 15.841 2.87793 15.3739 2.99056 14.7656L3.73316 10.7553C3.77849 10.5105 3.6969 10.2594 3.51634 10.0879L0.558317 7.27997C0.109665 6.85408 0.355242 6.09827 0.968544 6.01742L5.01213 5.4844C5.25895 5.45187 5.47256 5.29667 5.57977 5.07198L7.33624 1.39102Z" fill="#FFB020"/>
</svg>
